{"title":"The Willis Family - s01e02 - Dance Your Pants Off - HDTV 1080","uid":12043991,"size":1298024734,"categoryP":"video","categoryS":"tv_shows","magnet":"?xt=urn:btih:6cf31f24ccf6eab2bc42b195c53444caec021aaf&amp;dn=The+Willis+Family+-+s01e02+-+Dance+Your+Pants+Off+-+HDTV+1080&amp;tr=udp%3A%2F%2Ftracker.openbittorrent.com%3A80&amp;tr=udp%3A%2F%2Fopen.demonii.com%3A1337&amp;tr=udp%3A%2F%2Ftracker.coppersurfer.tk%3A6969&amp;tr=udp%3A%2F%2Fexodus.desync.com%3A6969","seeders":0,"leechers":0,"uploader":null,"files":13,"time":1434846154,"description":"The Willis Family follows a musically gifted family of fourteen--four boys, eight girls, and parents Brenda and Toby--as they make music at home and on the road.\n\nGeneral\nComplete name                            : The Willis Family - s01e02 - Dance Your Pants Off.mp4\nFormat                                   : MPEG-4\nFormat profile                           : Base Media / Version 2\nCodec ID                                 : mp42\nFile size                                : 1.12 GiB\nDuration                                 : 42mn 47s\nOverall bit rate mode                    : Variable\nOverall bit rate                         : 3 752 Kbps\nEncoded date                             : UTC 2015-05-31 23:35:53\nTagged date                              : UTC 2015-05-31 23:35:53\nÂ©TIM                                     : 00;00;00;00\nÂ©TSC                                     : 30000\nÂ©TSZ                                     : 1001\n\nVideo\nID                                       : 1\nFormat                                   : AVC\nFormat/Info                              : Advanced Video Codec\nFormat profile                           : &lt;a class=&quot;__cf_email__&quot; href=&quot;/cdn-cgi/l/email-protection&quot; data-cfemail=&quot;fab79b9394bab6ced4c8&quot;&gt;[email&amp;#160;protected]&lt;/a&gt;&lt;script data-cfhash='f9e31' type=&quot;text/javascript&quot;&gt;\n/* &lt;![CDATA[ */!function(){try{var t=&quot;currentScript&quot;in document?document.currentScript:function(){for(var t=document.getElementsByTagName(&quot;script&quot;),e=t.length;e--;)if(t[e].getAttribute(&quot;data-cfhash&quot;))return t[e]}();if(t&amp;&amp;t.previousSibling){var e,r,n,i,c=t.previousSibling,a=c.getAttribute(&quot;data-cfemail&quot;);if(a){for(e=&quot;&quot;,r=parseInt(a.substr(0,2),16),n=2;a.length-n;n+=2)i=parseInt(a.substr(n,2),16)^r,e+=String.fromCharCode(i);e=document.createTextNode(e),c.parentNode.replaceChild(e,c)}t.parentNode.removeChild(t);}}catch(u){}}()/* ]]&gt; */&lt;/script&gt;\nFormat settings, CABAC                   : Yes\nFormat settings, ReFrames                : 3 frames\nCodec ID                                 : avc1\nCodec ID/Info                            : Advanced Video Coding\nDuration                                 : 42mn 47s\nBit rate                                 : 3 494 Kbps\nWidth                                    : 1 920 pixels\nHeight                                   : 1 080 pixels\nDisplay aspect ratio                     : 16:9\nFrame rate mode                          : Constant\nFrame rate                               : 29.970 fps\nStandard                                 : NTSC\nColor space                              : YUV\nChroma subsampling                       : 4:2:0\nBit depth                                : 8 bits\nScan type                                : Progressive\nBits/(Pixel*Frame)                       : 0.056\nStream size                              : 1.04 GiB (93%)\nLanguage                                 : English\nEncoded date                             : UTC 2015-05-31 23:35:53\nTagged date                              : UTC 2015-05-31 23:35:53\nColor range                              : Limited\n\nAudio\nID                                       : 2\nFormat                                   : AAC\nFormat/Info                              : Advanced Audio Codec\nFormat profile                           : LC\nCodec ID                                 : 40\nDuration                                 : 42mn 47s\nSource duration                          : 42mn 47s\nBit rate mode                            : Variable\nBit rate                                 : 253 Kbps\nMaximum bit rate                         : 357 Kbps\nChannel(s)                               : 2 channels\nChannel positions                        : Front: L R\nSampling rate                            : 48.0 KHz\nCompression mode                         : Lossy\nStream size                              : 77.6 MiB (7%)\nSource stream size                       : 77.6 MiB (7%)\nLanguage                                 : English\nEncoded date                             : UTC 2015-05-31 23:35:53\nTagged date                              : UTC 2015-05-31 23:35:53","torrent":{"xt":"urn:btih:6cf31f24ccf6eab2bc42b195c53444caec021aaf","amp;dn":"The+Willis+Family+-+s01e02+-+Dance+Your+Pants+Off+-+HDTV+1080","amp;tr":["udp%3A%2F%2Ftracker.openbittorrent.com%3A80","udp%3A%2F%2Fopen.demonii.com%3A1337","udp%3A%2F%2Ftracker.coppersurfer.tk%3A6969","udp%3A%2F%2Fexodus.desync.com%3A6969"],"infoHash":"6cf31f24ccf6eab2bc42b195c53444caec021aaf","infoHashBuffer":{"type":"Buffer","data":[108,243,31,36,204,246,234,178,188,66,177,149,197,52,68,202,236,2,26,175]},"announce":[],"urlList":[]}}